<?xml version="1.0" encoding="utf-8"?>
<!-- Generator: Adobe Illustrator 28.1.0, SVG Export Plug-In . SVG Version: 6.00 Build 0)  -->
<svg version="1.1" id="Layer_1" xmlns="http://www.w3.org/2000/svg" xmlns:xlink="http://www.w3.org/1999/xlink" x="0px" y="0px"
	 viewBox="0 0 100 100" style="enable-background:new 0 0 100 100;" xml:space="preserve">
<style type="text/css">
	.st0{fill:#26a69a;}
</style>
<g>
	<path class="st0" d="M74.77,66.9l15.54,12.63c5.62-7.65,9.12-16.95,9.62-27.03H79.89C79.45,57.81,77.62,62.73,74.77,66.9z"/>
	<path class="st0" d="M50,80c-16.54,0-30-13.46-30-30c0-15.7,12.12-28.61,27.5-29.89V0.06C21.09,1.37,0,23.27,0,50
		c0,27.57,22.43,50,50,50c14.74,0,28-6.41,37.16-16.59L71.61,70.78C66.15,76.46,58.48,80,50,80z"/>
	<path class="st0" d="M79.89,47.5h5.01c0,0,0,0,0,0h10.02c0,0,0,0,0,0h5.01C98.67,21.92,78.08,1.33,52.5,0.06v3.81v1.2V15.1v5.01v0
		h0C67.05,21.32,78.68,32.95,79.89,47.5z M72.9,23.57c-2.39-2.07-5.06-3.81-7.94-5.18l7.41-7.41c2.73,1.57,5.28,3.42,7.61,5.51
		L72.9,23.57z M84.18,42.5c-0.2-0.93-0.45-1.84-0.73-2.73L91.22,32c1.45,3.31,2.52,6.83,3.14,10.5H84.18z M88.83,27.32l-7.39,7.39
		c-1.34-2.75-3.02-5.31-5.01-7.6l7.08-7.08C85.51,22.27,87.3,24.71,88.83,27.32z M57.5,5.64c3.54,0.6,6.94,1.61,10.15,2.98
		l-7.81,7.81c-0.77-0.23-1.55-0.43-2.34-0.6V5.64z"/>
</g>
</svg>